<svg xmlns="http://www.w3.org/2000/svg" xmlns:xlink="http://www.w3.org/1999/xlink" version="1.1" width="1576" height="960"><g id="Diagram Kontekstu"><g id="Wystawia e-recepty i e-skierowania"><polyline points="768,568 768,592 767.46,600.0699999999999 765.89,607.5899999999999 763.31,614.6 759.79,621.12 755.38,627.1600000000001 750.11,632.77 744.03,637.95 737.2,642.74 721.45,651.23 712.63,654.99 693.33,661.63 660.95,669.81 613.35,678.41 526.4200000000001,691.57 479.87,700.71 458.67,706.37 439.37,713.01 422.35,720.84 414.8,725.26 401.89,735.23 396.62,740.84 392.21,746.88 388.69,753.4 386.11,760.41 384.54,767.93 384,776 384,800" fill="none" stroke-width="1" stroke="#adb3b3" opacity="1"></polyline></g><g id="Wystawia e-recepty i e-skierowania"><rect width="139.764" height="38.2" x="506.1340186703779" y="664.9618485482323" rx="4" ry="4" fill-opacity="0.8" fill="#e5e7e8" stroke-opacity="1" stroke-width="1" stroke="#cfd2d2" opacity="0.8"></rect><g opacity="1" fill="#434647"><text font-family="IBM Plex Sans Medium, Arial, sans-serif" font-size="14" text-anchor="middle" x="576.0160186703779" y="681.3118485482324"><tspan dy="0" x="576.0160186703779">Wystawia e-recepty</tspan></text><text font-family="IBM Plex Sans Medium, Arial, sans-serif" font-size="14" text-anchor="middle" x="576.0160186703779" y="697.3118485482324"><tspan dy="0" x="576.0160186703779">i e-skierowania</tspan></text></g></g><g id="Weryfikuje ubezpieczenie pacjenta"><polyline points="832,568 831.43,607.49 829.78,620.94 827.15,632.55 823.66,642.49 819.39,650.98 814.46,658.2 808.96,664.35 803.01,669.63 790.12,678.33 763.31,693.78 751.04,703.65 745.54,709.8 740.61,717.02 736.34,725.51 732.85,735.45 730.22,747.06 728.57,760.51 728,800" fill="none" stroke-width="1" stroke="#adb3b3" opacity="1"></polyline></g><g id="Weryfikuje ubezpieczenie pacjenta"><rect width="104.078" height="54.2" x="728.0373689673056" y="657.0179186667336" rx="4" ry="4" fill-opacity="0.8" fill="#e5e7e8" stroke-opacity="1" stroke-width="1" stroke="#cfd2d2" opacity="0.8"></rect><g opacity="1" fill="#434647"><text font-family="IBM Plex Sans Medium, Arial, sans-serif" font-size="14" text-anchor="middle" x="780.0763689673056" y="673.3679186667338"><tspan dy="0" x="780.0763689673056">Weryfikuje</tspan></text><text font-family="IBM Plex Sans Medium, Arial, sans-serif" font-size="14" text-anchor="middle" x="780.0763689673056" y="689.3679186667338"><tspan dy="0" x="780.0763689673056">ubezpieczenie</tspan></text><text font-family="IBM Plex Sans Medium, Arial, sans-serif" font-size="14" text-anchor="middle" x="780.0763689673056" y="705.3679186667338"><tspan dy="0" x="780.0763689673056">pacjenta</tspan></text></g></g><g id="Korzysta z platformy"><polyline points="616,192 616.48,231.68 617.88,245.45999999999998 620.1,257.51 623.06,268.02 626.67,277.17 630.84,285.14 635.49,292.11 645.88,303.78999999999996 668.56,323.15 679.47,333.73 689.16,346.86 693.33,354.83000000000004 696.94,363.98 699.9,374.49 702.12,386.53999999999996 703.52,400.32 704,440" fill="none" stroke-width="1" stroke="#adb3b3" opacity="1"></polyline></g><g id="Korzysta z platformy"><rect width="78.318" height="38.2" x="620.9149928070696" y="296.8062125548883" rx="4" ry="4" fill-opacity="0.8" fill="#e5e7e8" stroke-opacity="1" stroke-width="1" stroke="#cfd2d2" opacity="0.8"></rect><g opacity="1" fill="#434647"><text font-family="IBM Plex Sans Medium, Arial, sans-serif" font-size="14" text-anchor="middle" x="660.0739928070695" y="313.1562125548883"><tspan dy="0" x="660.0739928070695">Korzysta z</tspan></text><text font-family="IBM Plex Sans Medium, Arial, sans-serif" font-size="14" text-anchor="middle" x="660.0739928070695" y="329.1562125548883"><tspan dy="0" x="660.0739928070695">platformy</tspan></text></g></g><g id="Przesyła i odbiera dane laboratoryjne"><polyline points="1288,364 1264,364 1243.58,364.90999999999997 1223.79,367.51 1195.1,374.13 1176.54,380.06 1149.35,390.71000000000004 1122.72,402.86 1043.58,441.37 1016.6,452.6 998.23,459.04 969.9,466.62 950.39,469.99 930.29,471.77 896,472" fill="none" stroke-width="1" stroke="#adb3b3" opacity="1"></polyline></g><g id="Przesyła i odbiera dane laboratoryjne"><rect width="133.18400000000003" height="38.2" x="1025.3322223018922" y="398.7454106539566" rx="4" ry="4" fill-opacity="0.8" fill="#e5e7e8" stroke-opacity="1" stroke-width="1" stroke="#cfd2d2" opacity="0.8"></rect><g opacity="1" fill="#434647"><text font-family="IBM Plex Sans Medium, Arial, sans-serif" font-size="14" text-anchor="middle" x="1091.9242223018923" y="415.0954106539566"><tspan dy="0" x="1091.9242223018923">Przesyła i odbiera</tspan></text><text font-family="IBM Plex Sans Medium, Arial, sans-serif" font-size="14" text-anchor="middle" x="1091.9242223018923" y="431.0954106539566"><tspan dy="0" x="1091.9242223018923">dane laboratoryjne</tspan></text></g></g><g id="Przesyła rozliczenia"><polyline points="896,536 920,536 929.17,536.6 937.52,538.38 945.08,541.26 951.9,545.1800000000001 958.03,550.0899999999999 963.51,555.9300000000001 968.37,562.62 972.67,570.11 979.75,587.25 982.61,596.77 987.21,617.4200000000001 991.94,651.46 998.9,736.62 1002.97,771.59 1006.91,793.15 1009.39,803.23 1015.55,821.66 1019.33,829.89 1023.63,837.38 1028.49,844.07 1033.97,849.91 1040.1,854.82 1046.92,858.74 1054.48,861.62 1062.83,863.4 1072,864 1096,864" fill="none" stroke-width="1" stroke="#adb3b3" opacity="1"></polyline></g><g id="Przesyła rozliczenia"><rect width="138.798" height="22.2" x="926.5090994446564" y="688.9122052739856" rx="4" ry="4" fill-opacity="0.8" fill="#e5e7e8" stroke-opacity="1" stroke-width="1" stroke="#cfd2d2" opacity="0.8"></rect><g opacity="1" fill="#434647"><text font-family="IBM Plex Sans Medium, Arial, sans-serif" font-size="14" text-anchor="middle" x="995.9080994446564" y="705.2622052739855"><tspan dy="0" x="995.9080994446564">Przesyła rozliczenia</tspan></text></g></g><g id="Zarządza pacjentami i wizytami"><polyline points="896,192 895.62,232.35 894.51,246.62 892.75,259.03 890.42,269.78 887.59,279.08 884.32,287.13 876.77,300.34000000000003 855.37,326.09000000000003 847.31,337.85 840.41,352.91999999999996 837.58,362.22 835.25,372.97 833.49,385.38 832.38,399.65 832,440" fill="none" stroke-width="1" stroke="#adb3b3" opacity="1"></polyline></g><g id="Zarządza pacjentami i wizytami"><rect width="90.568" height="54.2" x="818.5721739458545" y="288.7788327520676" rx="4" ry="4" fill-opacity="0.8" fill="#e5e7e8" stroke-opacity="1" stroke-width="1" stroke="#cfd2d2" opacity="0.8"></rect><g opacity="1" fill="#434647"><text font-family="IBM Plex Sans Medium, Arial, sans-serif" font-size="14" text-anchor="middle" x="863.8561739458545" y="305.12883275206764"><tspan dy="0" x="863.8561739458545">Zarządza</tspan></text><text font-family="IBM Plex Sans Medium, Arial, sans-serif" font-size="14" text-anchor="middle" x="863.8561739458545" y="321.12883275206764"><tspan dy="0" x="863.8561739458545">pacjentami i</tspan></text><text font-family="IBM Plex Sans Medium, Arial, sans-serif" font-size="14" text-anchor="middle" x="863.8561739458545" y="337.12883275206764"><tspan dy="0" x="863.8561739458545">wizytami</tspan></text></g></g><g id="Zarządza placówką"><polyline points="288,356 312,356 333.79,357.15999999999997 354.12,360.44 373.17,365.56 391.15,372.24 416.53,384.57 440.6,398.81 479.56,424.19 503.33,438.85 519.75,447.8 536.85,455.76 554.8299999999999,462.44 564.21,465.21 583.88,469.45 604.91,471.7 640,472" fill="none" stroke-width="1" stroke="#adb3b3" opacity="1"></polyline></g><g id="Zarządza placówką"><rect width="135.438" height="22.2" x="396.26150972446857" y="402.9409378030547" rx="4" ry="4" fill-opacity="0.8" fill="#e5e7e8" stroke-opacity="1" stroke-width="1" stroke="#cfd2d2" opacity="0.8"></rect><g opacity="1" fill="#434647"><text font-family="IBM Plex Sans Medium, Arial, sans-serif" font-size="14" text-anchor="middle" x="463.98050972446856" y="419.2909378030547"><tspan dy="0" x="463.98050972446856">Zarządza placówką</tspan></text></g></g><g id="Audytuje zgodność systemu"><polyline points="1288,572 1243.02,571.39 1222.71,569.6700000000001 1193.28,565.29 1174.25,561.38 1146.37,554.37 1046.79,524.2 1019.12,516.8299999999999 1000.29,512.5799999999999 971.23,507.57 951.21,505.34 930.58,504.15 896,504" fill="none" stroke-width="1" stroke="#adb3b3" opacity="1"></polyline></g><g id="Audytuje zgodność systemu"><rect width="133.394" height="38.2" x="1025.3278705319822" y="518.8049211081534" rx="4" ry="4" fill-opacity="0.8" fill="#e5e7e8" stroke-opacity="1" stroke-width="1" stroke="#cfd2d2" opacity="0.8"></rect><g opacity="1" fill="#434647"><text font-family="IBM Plex Sans Medium, Arial, sans-serif" font-size="14" text-anchor="middle" x="1092.0248705319823" y="535.1549211081533"><tspan dy="0" x="1092.0248705319823">Audytuje zgodność</tspan></text><text font-family="IBM Plex Sans Medium, Arial, sans-serif" font-size="14" text-anchor="middle" x="1092.0248705319823" y="551.1549211081534"><tspan dy="0" x="1092.0248705319823">systemu</tspan></text></g></g><g id="Monitoruje system"><polyline points="288,580 312,580 335.1,579.15 356.56,576.73 376.62,572.99 395.5,568.13 413.45,562.37 439.12,552.56 505.86,524.77 523.4200000000001,518.65 541.81,513.3199999999999 561.25,508.99 581.98,505.88 604.23,504.22 640,504" fill="none" stroke-width="1" stroke="#adb3b3" opacity="1"></polyline></g><g id="Monitoruje system"><rect width="130.608" height="22.2" x="398.76610416054575" y="531.0709770059698" rx="4" ry="4" fill-opacity="0.8" fill="#e5e7e8" stroke-opacity="1" stroke-width="1" stroke="#cfd2d2" opacity="0.8"></rect><g opacity="1" fill="#434647"><text font-family="IBM Plex Sans Medium, Arial, sans-serif" font-size="14" text-anchor="middle" x="464.0701041605457" y="547.4209770059697"><tspan dy="0" x="464.0701041605457">Monitoruje system</tspan></text></g></g><a href="https://app.icepanel.io/landscapes/RYcvKIaKKAwi7kZo9tqC/versions/latest/model/objects?object=7UiUtgVjFd&amp;focus=7UiUtgVjFd" id="SOZ" target="_blank"><rect width="256" height="128" rx="8" ry="8" fill-opacity="0.8" fill="#f5f6f6" stroke-opacity="1" stroke-width="1" stroke="#adb3b3" opacity="1" x="640" y="440"></rect><text font-family="IBM Plex Sans Medium, Arial, sans-serif" font-size="24" font-weight="500" text-anchor="middle" fill="#0c0d0d" opacity="1" x="767.9999999999999" y="491"><tspan dy="0" x="767.9999999999999">SOZ</tspan></text><g opacity="1"><text font-family="IBM Plex Sans, Arial, sans-serif" font-size="14" text-anchor="middle" fill="#595f61" x="768.0000000000001" y="525.25"><tspan dy="0" x="768.0000000000001">Platforma Cyfrowej Opieki Zdrowotnej</tspan></text></g><g id="System" opacity="1"><text font-family="Courier New, monospace" font-size="12" text-anchor="middle" fill="#595f61" x="768" y="556.6552734375"><tspan dy="0" x="768">System</tspan></text></g></a><a href="https://app.icepanel.io/landscapes/RYcvKIaKKAwi7kZo9tqC/versions/latest/model/objects?object=cmDpl4rrgH&amp;focus=cmDpl4rrgH" id="NFZ" target="_blank"><rect width="256" height="128" rx="8" ry="8" fill-opacity="0.8" fill="#ffffff" stroke-opacity="1" stroke-width="1" stroke="#cfd2d2" opacity="1" x="1096" y="800"></rect><text font-family="IBM Plex Sans Medium, Arial, sans-serif" font-size="24" font-weight="500" text-anchor="middle" fill="#0c0d0d" opacity="1" x="1224.0000000000002" y="851.0000000000001"><tspan dy="0" x="1224.0000000000002">NFZ</tspan></text><g opacity="1"><text font-family="IBM Plex Sans, Arial, sans-serif" font-size="14" text-anchor="middle" fill="#595f61" x="1224" y="885.2500000000001"><tspan dy="0" x="1224">Rozliczenia za świadczenia medyczne</tspan></text></g><g id="System zewnętrzny" opacity="1"><text font-family="Courier New, monospace" font-size="12" text-anchor="middle" fill="#595f61" x="1224" y="916.6552734375"><tspan dy="0" x="1224">System zewnętrzny</tspan></text></g></a><a href="https://app.icepanel.io/landscapes/RYcvKIaKKAwi7kZo9tqC/versions/latest/model/objects?object=MdFtEbMz8c&amp;focus=MdFtEbMz8c" id="eWUŚ" target="_blank"><rect width="256" height="128" rx="8" ry="8" fill-opacity="0.8" fill="#ffffff" stroke-opacity="1" stroke-width="1" stroke="#cfd2d2" opacity="1" x="664" y="800"></rect><text font-family="IBM Plex Sans Medium, Arial, sans-serif" font-size="24" font-weight="500" text-anchor="middle" fill="#0c0d0d" opacity="1" x="792.0000000000001" y="851.0000000000001"><tspan dy="0" x="792.0000000000001">eWUŚ</tspan></text><g opacity="1"><text font-family="IBM Plex Sans, Arial, sans-serif" font-size="14" text-anchor="middle" fill="#595f61" x="792" y="885.2500000000001"><tspan dy="0" x="792">Weryfikacja ubezpieczenia pacjenta</tspan></text></g><g id="System zewnętrzny" opacity="1"><text font-family="Courier New, monospace" font-size="12" text-anchor="middle" fill="#595f61" x="792" y="916.6552734375"><tspan dy="0" x="792">System zewnętrzny</tspan></text></g></a><a href="https://app.icepanel.io/landscapes/RYcvKIaKKAwi7kZo9tqC/versions/latest/model/objects?object=dS3Uh2H3AR&amp;focus=dS3Uh2H3AR" id="Centrum e-Zdrowia" target="_blank"><rect width="256" height="128" rx="8" ry="8" fill-opacity="0.8" fill="#ffffff" stroke-opacity="1" stroke-width="1" stroke="#cfd2d2" opacity="1" x="192" y="800"></rect><text font-family="IBM Plex Sans Medium, Arial, sans-serif" font-size="24" font-weight="500" text-anchor="middle" fill="#0c0d0d" opacity="1" x="320" y="851.0000000000001"><tspan dy="0" x="320">Centrum e-Zdrowia</tspan></text><g opacity="1"><text font-family="IBM Plex Sans, Arial, sans-serif" font-size="14" text-anchor="middle" fill="#595f61" x="320" y="885.2500000000001"><tspan dy="0" x="320">e-recepty i e-skierowania</tspan></text></g><g id="System zewnętrzny" opacity="1"><text font-family="Courier New, monospace" font-size="12" text-anchor="middle" fill="#595f61" x="320" y="916.6552734375"><tspan dy="0" x="320">System zewnętrzny</tspan></text></g></a><a href="https://app.icepanel.io/landscapes/RYcvKIaKKAwi7kZo9tqC/versions/latest/model/objects?object=P6UG1J4G1n&amp;focus=P6UG1J4G1n" id="Administrator IT" target="_blank"><rect width="56" height="56" rx="8" ry="8" fill-opacity="0.8" fill="#f5f6f6" stroke-opacity="1" stroke-width="1" stroke="#adb3b3" opacity="1" x="132" y="464"></rect><rect width="256" height="96" rx="8" ry="8" fill-opacity="0.8" fill="#f5f6f6" stroke-opacity="1" stroke-width="1" stroke="#adb3b3" opacity="1" x="32" y="528"></rect><path d="M160 493.7142857142857C163.7875 493.7142857142857 166.85714285714286 490.64464285714286 166.85714285714286 486.85714285714283C166.85714285714286 483.06964285714287 163.7875 480 160 480C156.2125 480 153.14285714285714 483.06964285714287 153.14285714285714 486.85714285714283C153.14285714285714 490.64464285714286 156.2125 493.7142857142857 160 493.7142857142857ZM164.8 495.42857142857144L163.90535714285716 495.42857142857144C162.71607142857144 495.975 161.39285714285714 496.2857142857143 160 496.2857142857143C158.60714285714286 496.2857142857143 157.2892857142857 495.975 156.09464285714284 495.42857142857144L155.2 495.42857142857144C151.225 495.42857142857144 148 498.6535714285714 148 502.62857142857143L148 504.85714285714283C148 506.2767857142857 149.15178571428572 507.42857142857144 150.57142857142856 507.42857142857144L169.42857142857142 507.42857142857144C170.84821428571428 507.42857142857144 172 506.2767857142857 172 504.85714285714283L172 502.62857142857143C172 498.6535714285714 168.775 495.42857142857144 164.8 495.42857142857144Z " fill="#0c0d0d" opacity="1"></path><text font-family="IBM Plex Sans Medium, Arial, sans-serif" font-size="24" font-weight="500" text-anchor="middle" fill="#0c0d0d" opacity="1" x="160" y="566.3333333333333"><tspan dy="0" x="160">Administrator IT</tspan></text><g opacity="1"><text font-family="IBM Plex Sans, Arial, sans-serif" font-size="12" text-anchor="middle" fill="#595f61" x="160" y="592.8333333333334"><tspan dy="0" x="160">Monitorowanie i bezpieczeństwo systemu</tspan></text></g><g id="Aktor" opacity="1"><text font-family="Courier New, monospace" font-size="12" text-anchor="middle" fill="#595f61" x="160" y="612.6552734375"><tspan dy="0" x="160">Aktor</tspan></text></g></a><a href="https://app.icepanel.io/landscapes/RYcvKIaKKAwi7kZo9tqC/versions/latest/model/objects?object=7EuSzvd0mL&amp;focus=7EuSzvd0mL" id="Administrator placówki" target="_blank"><rect width="56" height="56" rx="8" ry="8" fill-opacity="0.8" fill="#f5f6f6" stroke-opacity="1" stroke-width="1" stroke="#adb3b3" opacity="1" x="132" y="240"></rect><rect width="256" height="96" rx="8" ry="8" fill-opacity="0.8" fill="#f5f6f6" stroke-opacity="1" stroke-width="1" stroke="#adb3b3" opacity="1" x="32" y="304"></rect><path d="M160 269.7142857142857C163.7875 269.7142857142857 166.85714285714286 266.64464285714286 166.85714285714286 262.8571428571429C166.85714285714286 259.06964285714287 163.7875 256 160 256C156.2125 256 153.14285714285714 259.06964285714287 153.14285714285714 262.8571428571429C153.14285714285714 266.64464285714286 156.2125 269.7142857142857 160 269.7142857142857ZM164.8 271.42857142857144L163.90535714285716 271.42857142857144C162.71607142857144 271.975 161.39285714285714 272.2857142857143 160 272.2857142857143C158.60714285714286 272.2857142857143 157.2892857142857 271.975 156.09464285714284 271.42857142857144L155.2 271.42857142857144C151.225 271.42857142857144 148 274.6535714285714 148 278.62857142857143L148 280.8571428571429C148 282.2767857142857 149.15178571428572 283.42857142857144 150.57142857142856 283.42857142857144L169.42857142857142 283.42857142857144C170.84821428571428 283.42857142857144 172 282.2767857142857 172 280.8571428571429L172 278.62857142857143C172 274.6535714285714 168.775 271.42857142857144 164.8 271.42857142857144Z " fill="#0c0d0d" opacity="1"></path><text font-family="IBM Plex Sans Medium, Arial, sans-serif" font-size="23" font-weight="500" text-anchor="middle" fill="#0c0d0d" opacity="1" x="160" y="341.9583333333333"><tspan dy="0" x="160">Administrator placówki</tspan></text><g opacity="1"><text font-family="IBM Plex Sans, Arial, sans-serif" font-size="12" text-anchor="middle" fill="#595f61" x="160" y="368.83333333333326"><tspan dy="0" x="160">Nadzór operacyjny nad placówką medyczną</tspan></text></g><g id="Aktor" opacity="1"><text font-family="Courier New, monospace" font-size="12" text-anchor="middle" fill="#595f61" x="160" y="388.6552734375"><tspan dy="0" x="160">Aktor</tspan></text></g></a><a href="https://app.icepanel.io/landscapes/RYcvKIaKKAwi7kZo9tqC/versions/latest/model/objects?object=V0uUjLzjmj&amp;focus=V0uUjLzjmj" id="Laboratorium" target="_blank"><rect width="56" height="56" rx="8" ry="8" fill-opacity="0.8" fill="#f5f6f6" stroke-opacity="1" stroke-width="1" stroke="#adb3b3" opacity="1" x="1388" y="248"></rect><rect width="256" height="96" rx="8" ry="8" fill-opacity="0.8" fill="#f5f6f6" stroke-opacity="1" stroke-width="1" stroke="#adb3b3" opacity="1" x="1288" y="312"></rect><path d="M1416 277.7142857142857C1419.7875 277.7142857142857 1422.857142857143 274.64464285714286 1422.857142857143 270.8571428571429C1422.857142857143 267.06964285714287 1419.7875 264 1416 264C1412.2125 264 1409.142857142857 267.06964285714287 1409.142857142857 270.8571428571429C1409.142857142857 274.64464285714286 1412.2125 277.7142857142857 1416 277.7142857142857ZM1420.8 279.42857142857144L1419.9053571428572 279.42857142857144C1418.7160714285715 279.975 1417.392857142857 280.2857142857143 1416 280.2857142857143C1414.607142857143 280.2857142857143 1413.2892857142856 279.975 1412.0946428571428 279.42857142857144L1411.2 279.42857142857144C1407.225 279.42857142857144 1404 282.6535714285714 1404 286.62857142857143L1404 288.85714285714283C1404 290.2767857142857 1405.1517857142858 291.42857142857144 1406.5714285714287 291.42857142857144L1425.4285714285713 291.42857142857144C1426.8482142857142 291.42857142857144 1428 290.2767857142857 1428 288.85714285714283L1428 286.62857142857143C1428 282.6535714285714 1424.775 279.42857142857144 1420.8 279.42857142857144Z " fill="#0c0d0d" opacity="1"></path><text font-family="IBM Plex Sans Medium, Arial, sans-serif" font-size="24" font-weight="500" text-anchor="middle" fill="#0c0d0d" opacity="1" x="1415.9999999999998" y="350.33333333333337"><tspan dy="0" x="1415.9999999999998">Laboratorium</tspan></text><g opacity="1"><text font-family="IBM Plex Sans, Arial, sans-serif" font-size="12" text-anchor="middle" fill="#595f61" x="1416" y="376.83333333333326"><tspan dy="0" x="1416">Wewnętrzny dział diagnostyki laboratoryjnej</tspan></text></g><g id="Aktor" opacity="1"><text font-family="Courier New, monospace" font-size="12" text-anchor="middle" fill="#595f61" x="1416" y="396.6552734375"><tspan dy="0" x="1416">Aktor</tspan></text></g></a><a href="https://app.icepanel.io/landscapes/RYcvKIaKKAwi7kZo9tqC/versions/latest/model/objects?object=IvOcfaIWBO&amp;focus=IvOcfaIWBO" id="Lekarz" target="_blank"><rect width="56" height="56" rx="8" ry="8" fill-opacity="0.8" fill="#f5f6f6" stroke-opacity="1" stroke-width="1" stroke="#adb3b3" opacity="1" x="932" y="32"></rect><rect width="256" height="96" rx="8" ry="8" fill-opacity="0.8" fill="#f5f6f6" stroke-opacity="1" stroke-width="1" stroke="#adb3b3" opacity="1" x="832" y="96"></rect><path d="M960 61.714285714285715C963.7875 61.714285714285715 966.8571428571429 58.644642857142856 966.8571428571429 54.85714285714286C966.8571428571429 51.06964285714285 963.7875 48 960 48C956.2125 48 953.1428571428571 51.06964285714285 953.1428571428571 54.85714285714286C953.1428571428571 58.644642857142856 956.2125 61.714285714285715 960 61.714285714285715ZM964.8 63.42857142857143L963.9053571428572 63.42857142857143C962.7160714285715 63.974999999999994 961.3928571428571 64.28571428571428 960 64.28571428571428C958.6071428571429 64.28571428571428 957.2892857142857 63.974999999999994 956.0946428571428 63.42857142857143L955.2 63.42857142857143C951.225 63.42857142857143 948 66.65357142857142 948 70.62857142857143L948 72.85714285714286C948 74.27678571428571 949.1517857142857 75.42857142857143 950.5714285714286 75.42857142857143L969.4285714285714 75.42857142857143C970.8482142857142 75.42857142857143 972 74.27678571428571 972 72.85714285714286L972 70.62857142857143C972 66.65357142857142 968.775 63.42857142857143 964.8 63.42857142857143Z " fill="#0c0d0d" opacity="1"></path><text font-family="IBM Plex Sans Medium, Arial, sans-serif" font-size="24" font-weight="500" text-anchor="middle" fill="#0c0d0d" opacity="1" x="959.9999999999999" y="134.33333333333334"><tspan dy="0" x="959.9999999999999">Lekarz</tspan></text><g opacity="1"><text font-family="IBM Plex Sans, Arial, sans-serif" font-size="12" text-anchor="middle" fill="#595f61" x="959.9999999999999" y="160.83333333333331"><tspan dy="0" x="959.9999999999999">Personel medyczny zajmujący się leczeniem</tspan></text></g><g id="Aktor" opacity="1"><text font-family="Courier New, monospace" font-size="12" text-anchor="middle" fill="#595f61" x="960" y="180.6552734375"><tspan dy="0" x="960">Aktor</tspan></text></g></a><a href="https://app.icepanel.io/landscapes/RYcvKIaKKAwi7kZo9tqC/versions/latest/model/objects?object=lkS1vGcBUc&amp;focus=lkS1vGcBUc" id="Pacjent" target="_blank"><rect width="56" height="56" rx="8" ry="8" fill-opacity="0.8" fill="#f5f6f6" stroke-opacity="1" stroke-width="1" stroke="#adb3b3" opacity="1" x="588" y="32"></rect><rect width="256" height="96" rx="8" ry="8" fill-opacity="0.8" fill="#f5f6f6" stroke-opacity="1" stroke-width="1" stroke="#adb3b3" opacity="1" x="488" y="96"></rect><path d="M616 61.714285714285715C619.7875 61.714285714285715 622.8571428571429 58.644642857142856 622.8571428571429 54.85714285714286C622.8571428571429 51.06964285714285 619.7875 48 616 48C612.2125 48 609.1428571428571 51.06964285714285 609.1428571428571 54.85714285714286C609.1428571428571 58.644642857142856 612.2125 61.714285714285715 616 61.714285714285715ZM620.8 63.42857142857143L619.9053571428572 63.42857142857143C618.7160714285715 63.974999999999994 617.3928571428571 64.28571428571428 616 64.28571428571428C614.6071428571429 64.28571428571428 613.2892857142857 63.974999999999994 612.0946428571428 63.42857142857143L611.2 63.42857142857143C607.225 63.42857142857143 604 66.65357142857142 604 70.62857142857143L604 72.85714285714286C604 74.27678571428571 605.1517857142857 75.42857142857143 606.5714285714286 75.42857142857143L625.4285714285714 75.42857142857143C626.8482142857142 75.42857142857143 628 74.27678571428571 628 72.85714285714286L628 70.62857142857143C628 66.65357142857142 624.775 63.42857142857143 620.8 63.42857142857143Z " fill="#0c0d0d" opacity="1"></path><text font-family="IBM Plex Sans Medium, Arial, sans-serif" font-size="24" font-weight="500" text-anchor="middle" fill="#0c0d0d" opacity="1" x="615.9999999999999" y="134.33333333333334"><tspan dy="0" x="615.9999999999999">Pacjent</tspan></text><g opacity="1"><text font-family="IBM Plex Sans, Arial, sans-serif" font-size="11" text-anchor="middle" fill="#595f61" x="616" y="160.45833333333331"><tspan dy="0" x="616">Użytkownik korzystający z usług medycznych</tspan></text></g><g id="Aktor" opacity="1"><text font-family="Courier New, monospace" font-size="12" text-anchor="middle" fill="#595f61" x="616" y="180.6552734375"><tspan dy="0" x="616">Aktor</tspan></text></g></a><a href="https://app.icepanel.io/landscapes/RYcvKIaKKAwi7kZo9tqC/versions/latest/model/objects?object=0stOCNir3Y&amp;focus=0stOCNir3Y" id="Specjalista ds. zgodności" target="_blank"><rect width="56" height="56" rx="8" ry="8" fill-opacity="0.8" fill="#f5f6f6" stroke-opacity="1" stroke-width="1" stroke="#adb3b3" opacity="1" x="1388" y="456"></rect><rect width="256" height="96" rx="8" ry="8" fill-opacity="0.8" fill="#f5f6f6" stroke-opacity="1" stroke-width="1" stroke="#adb3b3" opacity="1" x="1288" y="520"></rect><path d="M1416 485.7142857142857C1419.7875 485.7142857142857 1422.857142857143 482.64464285714286 1422.857142857143 478.85714285714283C1422.857142857143 475.06964285714287 1419.7875 472 1416 472C1412.2125 472 1409.142857142857 475.06964285714287 1409.142857142857 478.85714285714283C1409.142857142857 482.64464285714286 1412.2125 485.7142857142857 1416 485.7142857142857ZM1420.8 487.42857142857144L1419.9053571428572 487.42857142857144C1418.7160714285715 487.975 1417.392857142857 488.2857142857143 1416 488.2857142857143C1414.607142857143 488.2857142857143 1413.2892857142856 487.975 1412.0946428571428 487.42857142857144L1411.2 487.42857142857144C1407.225 487.42857142857144 1404 490.6535714285714 1404 494.62857142857143L1404 496.85714285714283C1404 498.2767857142857 1405.1517857142858 499.42857142857144 1406.5714285714287 499.42857142857144L1425.4285714285713 499.42857142857144C1426.8482142857142 499.42857142857144 1428 498.2767857142857 1428 496.85714285714283L1428 494.62857142857143C1428 490.6535714285714 1424.775 487.42857142857144 1420.8 487.42857142857144Z " fill="#0c0d0d" opacity="1"></path><text font-family="IBM Plex Sans Medium, Arial, sans-serif" font-size="21" font-weight="500" text-anchor="middle" fill="#0c0d0d" opacity="1" x="1416" y="557.2083333333331"><tspan dy="0" x="1416">Specjalista ds. zgodności</tspan></text><g opacity="1"><text font-family="IBM Plex Sans, Arial, sans-serif" font-size="14" text-anchor="middle" fill="#595f61" x="1415.9999999999998" y="585.5833333333333"><tspan dy="0" x="1415.9999999999998">Nadzór nad zgodnością z przepisami</tspan></text></g><g id="Aktor" opacity="1"><text font-family="Courier New, monospace" font-size="12" text-anchor="middle" fill="#595f61" x="1416" y="604.6552734375"><tspan dy="0" x="1416">Aktor</tspan></text></g></a><g id="Wystawia e-recepty i e-skierowania"><polygon points="319.99999999999994,720 311.99999999999994,736 327.99999999999994,736 319.99999999999994,720" fill="#adb3b3" opacity="1" transform="matrix(-1,1.2246467991473532e-16,-1.2246467991473532e-16,-1,704.0000000000001,1520)"></polygon><circle r="4" fill="#adb3b3" opacity="1" cx="768" cy="568"></circle></g><g id="Weryfikuje ubezpieczenie pacjenta"><polygon points="663.656952207036,720.4660071537996 655.656952207036,736.4660071537996 671.656952207036,736.4660071537996 663.656952207036,720.4660071537996" fill="#adb3b3" opacity="1" transform="matrix(-0.9998958456066822,-0.01443253056459513,0.01443253056459513,-0.9998958456066822,1381.1896817508086,1529.9692167010526)"></polygon><circle r="4" fill="#adb3b3" opacity="1" cx="832" cy="568"></circle></g><g id="Korzysta z platformy"><polygon points="640.2926423954511,359.615857862772 632.2926423954511,375.615857862772 648.2926423954511,375.615857862772 640.2926423954511,359.615857862772" fill="#adb3b3" opacity="1" transform="matrix(-0.9999268420559655,0.012095889218419541,-0.012095889218419541,-0.9999268420559655,1348.5956734800482,791.844640236184)"></polygon><polygon points="615.7073576045487,192.38414213722808 607.7073576045487,208.38414213722808 623.7073576045487,208.38414213722808 615.7073576045487,192.38414213722808" fill="#adb3b3" opacity="1" transform="matrix(0.9999268420559655,-0.012095889218420107,0.012095889218420107,0.9999268420559655,-1.9893709908121764,7.077460279626337)"></polygon></g><g id="Przesyła i odbiera dane laboratoryjne"><polygon points="839.7859048591621,463.7309864158911 831.7859048591621,479.7309864158911 847.7859048591621,479.7309864158911 839.7859048591621,463.7309864158911" fill="#adb3b3" opacity="1" transform="matrix(-0.006707344014829308,-0.9999775055151324,0.9999775055151324,-0.006707344014829308,437.9121779364606,1314.877417564061)"></polygon><polygon points="1280,291.99999999999994 1272,307.99999999999994 1288,307.99999999999994 1280,291.99999999999994" fill="#adb3b3" opacity="1" transform="matrix(6.123233995736766e-17,1,-1,6.123233995736766e-17,1580,-916)"></polygon></g><g id="Przesyła rozliczenia"><polygon points="1088,792 1080,808 1096,808 1088,792" fill="#adb3b3" opacity="1" transform="matrix(6.123233995736766e-17,1,-1,6.123233995736766e-17,1888,-224)"></polygon><circle r="4" fill="#adb3b3" opacity="1" cx="896" cy="536"></circle></g><g id="Zarządza pacjentami i wizytami"><polygon points="767.7754066810405,360.3031234142041 759.7754066810405,376.3031234142041 775.7754066810405,376.3031234142041 767.7754066810405,360.3031234142041" fill="#adb3b3" opacity="1" transform="matrix(-0.9999556573920384,-0.009417178433927288,0.009417178433927288,-0.9999556573920384,1596.3483227136865,807.5174246359518)"></polygon><polygon points="896.2245933189595,191.69687658579582 888.2245933189595,207.69687658579582 904.2245933189595,207.69687658579582 896.2245933189595,191.69687658579582" fill="#adb3b3" opacity="1" transform="matrix(0.9999556573920384,0.00941717843392759,-0.00941717843392759,0.9999556573920384,1.6203913088626223,-8.128283158508765)"></polygon></g><g id="Zarządza placówką"><polygon points="631.7255507128774,399.6592041498146 623.7255507128774,415.6592041498146 639.7255507128774,415.6592041498146 631.7255507128774,399.6592041498146" fill="#adb3b3" opacity="1" transform="matrix(-0.008549131850993817,0.9999634555045471,-0.9999634555045471,-0.008549131850993817,1045.0453038325322,-156.28572538962186)"></polygon><circle r="4" fill="#adb3b3" opacity="1" cx="288" cy="356"></circle></g><g id="Audytuje zgodność systemu"><polygon points="840.1390330454885,496.1732080120602 832.1390330454885,512.1732080120602 848.1390330454885,512.1732080120602 840.1390330454885,496.1732080120602" fill="#adb3b3" opacity="1" transform="matrix(0.004337726686028601,-0.9999905920193436,0.9999905920193436,0.004337726686028601,396.1871664722674,1341.9788652684308)"></polygon><circle r="4" fill="#adb3b3" opacity="1" cx="1288" cy="572"></circle></g><g id="Monitoruje system"><polygon points="632.1963553324433,432.2466167843582 624.1963553324433,448.2466167843582 640.1963553324433,448.2466167843582 632.1963553324433,432.2466167843582" fill="#adb3b3" opacity="1" transform="matrix(0.006150289043740687,0.9999810867934845,-0.9999810867934845,0.006150289043740687,1068.3502512971354,-130.84284010361938)"></polygon><circle r="4" fill="#adb3b3" opacity="1" cx="288" cy="580"></circle></g></g></svg>